<mxfile host="Electron" agent="Mozilla/5.0 (X11; Linux x86_64) AppleWebKit/537.36 (KHTML, like Gecko) draw.io/24.7.17 Chrome/128.0.6613.36 Electron/32.0.1 Safari/537.36" version="24.7.17">
  <diagram name="第 1 页" id="efau3ghBnL3F4p52RWP0">
    <mxGraphModel dx="1364" dy="843" grid="0" gridSize="10" guides="1" tooltips="1" connect="1" arrows="1" fold="1" page="0" pageScale="1" pageWidth="827" pageHeight="1169" math="0" shadow="0">
      <root>
        <mxCell id="0" />
        <mxCell id="1" parent="0" />
        <mxCell id="1vojoNklrmK_YVgTnjrY-8" style="edgeStyle=orthogonalEdgeStyle;rounded=0;orthogonalLoop=1;jettySize=auto;html=1;entryX=0.5;entryY=0;entryDx=0;entryDy=0;" edge="1" parent="1" source="1vojoNklrmK_YVgTnjrY-1" target="1vojoNklrmK_YVgTnjrY-2">
          <mxGeometry relative="1" as="geometry" />
        </mxCell>
        <mxCell id="1vojoNklrmK_YVgTnjrY-1" value="start" style="ellipse;whiteSpace=wrap;html=1;" vertex="1" parent="1">
          <mxGeometry x="100" y="70" width="80" height="40" as="geometry" />
        </mxCell>
        <mxCell id="1vojoNklrmK_YVgTnjrY-9" style="edgeStyle=orthogonalEdgeStyle;rounded=0;orthogonalLoop=1;jettySize=auto;html=1;exitX=0.5;exitY=1;exitDx=0;exitDy=0;entryX=0.5;entryY=0;entryDx=0;entryDy=0;" edge="1" parent="1" source="1vojoNklrmK_YVgTnjrY-2" target="1vojoNklrmK_YVgTnjrY-3">
          <mxGeometry relative="1" as="geometry" />
        </mxCell>
        <mxCell id="1vojoNklrmK_YVgTnjrY-2" value="bootloader" style="rounded=0;whiteSpace=wrap;html=1;" vertex="1" parent="1">
          <mxGeometry x="90" y="140" width="100" height="40" as="geometry" />
        </mxCell>
        <mxCell id="1vojoNklrmK_YVgTnjrY-10" style="edgeStyle=orthogonalEdgeStyle;rounded=0;orthogonalLoop=1;jettySize=auto;html=1;exitX=0.5;exitY=1;exitDx=0;exitDy=0;entryX=0.5;entryY=0;entryDx=0;entryDy=0;" edge="1" parent="1" source="1vojoNklrmK_YVgTnjrY-3" target="1vojoNklrmK_YVgTnjrY-4">
          <mxGeometry relative="1" as="geometry" />
        </mxCell>
        <mxCell id="1vojoNklrmK_YVgTnjrY-3" value="kernel" style="rounded=0;whiteSpace=wrap;html=1;" vertex="1" parent="1">
          <mxGeometry x="90" y="210" width="100" height="40" as="geometry" />
        </mxCell>
        <mxCell id="1vojoNklrmK_YVgTnjrY-25" style="edgeStyle=orthogonalEdgeStyle;rounded=0;orthogonalLoop=1;jettySize=auto;html=1;entryX=0.5;entryY=0;entryDx=0;entryDy=0;" edge="1" parent="1" source="1vojoNklrmK_YVgTnjrY-4" target="1vojoNklrmK_YVgTnjrY-24">
          <mxGeometry relative="1" as="geometry" />
        </mxCell>
        <mxCell id="1vojoNklrmK_YVgTnjrY-4" value="shell" style="rounded=0;whiteSpace=wrap;html=1;" vertex="1" parent="1">
          <mxGeometry x="90" y="280" width="100" height="40" as="geometry" />
        </mxCell>
        <mxCell id="1vojoNklrmK_YVgTnjrY-16" style="edgeStyle=orthogonalEdgeStyle;rounded=0;orthogonalLoop=1;jettySize=auto;html=1;exitX=1;exitY=0.5;exitDx=0;exitDy=0;entryX=0;entryY=0.5;entryDx=0;entryDy=0;startArrow=classic;startFill=1;" edge="1" parent="1" source="1vojoNklrmK_YVgTnjrY-5" target="1vojoNklrmK_YVgTnjrY-13">
          <mxGeometry relative="1" as="geometry" />
        </mxCell>
        <mxCell id="1vojoNklrmK_YVgTnjrY-5" value="user program" style="rounded=0;whiteSpace=wrap;html=1;" vertex="1" parent="1">
          <mxGeometry x="90" y="506" width="100" height="40" as="geometry" />
        </mxCell>
        <mxCell id="1vojoNklrmK_YVgTnjrY-17" style="edgeStyle=orthogonalEdgeStyle;rounded=0;orthogonalLoop=1;jettySize=auto;html=1;exitX=1;exitY=0.5;exitDx=0;exitDy=0;entryX=0;entryY=0.5;entryDx=0;entryDy=0;startArrow=classic;startFill=1;" edge="1" parent="1" source="1vojoNklrmK_YVgTnjrY-13" target="1vojoNklrmK_YVgTnjrY-14">
          <mxGeometry relative="1" as="geometry" />
        </mxCell>
        <mxCell id="1vojoNklrmK_YVgTnjrY-13" value="system&lt;div&gt;function_call&lt;/div&gt;" style="rounded=0;whiteSpace=wrap;html=1;" vertex="1" parent="1">
          <mxGeometry x="235" y="506" width="100" height="40" as="geometry" />
        </mxCell>
        <mxCell id="1vojoNklrmK_YVgTnjrY-18" style="edgeStyle=orthogonalEdgeStyle;rounded=0;orthogonalLoop=1;jettySize=auto;html=1;exitX=1;exitY=0.5;exitDx=0;exitDy=0;entryX=0;entryY=0.5;entryDx=0;entryDy=0;startArrow=classic;startFill=1;" edge="1" parent="1" source="1vojoNklrmK_YVgTnjrY-14" target="1vojoNklrmK_YVgTnjrY-15">
          <mxGeometry relative="1" as="geometry" />
        </mxCell>
        <mxCell id="1vojoNklrmK_YVgTnjrY-14" value="drivers" style="rounded=0;whiteSpace=wrap;html=1;" vertex="1" parent="1">
          <mxGeometry x="377" y="506" width="100" height="40" as="geometry" />
        </mxCell>
        <mxCell id="1vojoNklrmK_YVgTnjrY-15" value="devices" style="rounded=0;whiteSpace=wrap;html=1;" vertex="1" parent="1">
          <mxGeometry x="510" y="506" width="100" height="40" as="geometry" />
        </mxCell>
        <mxCell id="1vojoNklrmK_YVgTnjrY-23" style="edgeStyle=orthogonalEdgeStyle;rounded=0;orthogonalLoop=1;jettySize=auto;html=1;exitX=0.5;exitY=1;exitDx=0;exitDy=0;entryX=0.5;entryY=0;entryDx=0;entryDy=0;" edge="1" parent="1" source="1vojoNklrmK_YVgTnjrY-21" target="1vojoNklrmK_YVgTnjrY-5">
          <mxGeometry relative="1" as="geometry" />
        </mxCell>
        <mxCell id="1vojoNklrmK_YVgTnjrY-21" value="loader" style="rounded=0;whiteSpace=wrap;html=1;" vertex="1" parent="1">
          <mxGeometry x="90" y="436" width="100" height="40" as="geometry" />
        </mxCell>
        <mxCell id="1vojoNklrmK_YVgTnjrY-26" value="Y" style="edgeStyle=orthogonalEdgeStyle;rounded=0;orthogonalLoop=1;jettySize=auto;html=1;exitX=0.5;exitY=1;exitDx=0;exitDy=0;entryX=0.5;entryY=0;entryDx=0;entryDy=0;" edge="1" parent="1" source="1vojoNklrmK_YVgTnjrY-24" target="1vojoNklrmK_YVgTnjrY-21">
          <mxGeometry relative="1" as="geometry" />
        </mxCell>
        <mxCell id="1vojoNklrmK_YVgTnjrY-24" value="user&lt;div&gt;program?&lt;/div&gt;" style="rhombus;whiteSpace=wrap;html=1;" vertex="1" parent="1">
          <mxGeometry x="78" y="344" width="124" height="56" as="geometry" />
        </mxCell>
        <mxCell id="1vojoNklrmK_YVgTnjrY-27" style="edgeStyle=orthogonalEdgeStyle;rounded=0;orthogonalLoop=1;jettySize=auto;html=1;entryX=0;entryY=0.446;entryDx=0;entryDy=0;entryPerimeter=0;" edge="1" parent="1" source="1vojoNklrmK_YVgTnjrY-5" target="1vojoNklrmK_YVgTnjrY-24">
          <mxGeometry relative="1" as="geometry">
            <Array as="points">
              <mxPoint x="58" y="526" />
              <mxPoint x="58" y="369" />
            </Array>
          </mxGeometry>
        </mxCell>
      </root>
    </mxGraphModel>
  </diagram>
</mxfile>
